<?xml version="1.0" encoding="utf-8"?>
<!-- Generator: Adobe Illustrator 25.0.0, SVG Export Plug-In . SVG Version: 6.00 Build 0)  -->
<svg version="1.1" id="Capa_1" xmlns="http://www.w3.org/2000/svg" xmlns:xlink="http://www.w3.org/1999/xlink" x="0px" y="0px"
	 viewBox="0 0 76 77" style="enable-background:new 0 0 76 77;" xml:space="preserve">
<style type="text/css">
	.st0{opacity:0.3;}
	.st1{fill-rule:evenodd;clip-rule:evenodd;fill:#00C7FF;}
</style>
<g class="st0">
	<path class="st1" d="M62.59,8.85H29.78c-0.32,0-0.64,0.01-0.97,0.03L40.25,32.8L64.2,21.7l10.01-4.75
		C72.68,12.16,68.32,8.85,62.59,8.85L62.59,8.85z M40.92,34.2l16.07,33.6c5.75-2.25,10.51-7.52,11.69-13.63l0.55-2.85l-9.99-5.9
		L40.92,34.2L40.92,34.2z M70.9,42.57l-15.24-9.01l18.67-8.85L70.9,42.57L70.9,42.57z M21.65,11.04l18.68,37.65L20.81,37.46
		l-10.16-5.99l1.5-7.83C13.17,18.33,16.91,13.64,21.65,11.04L21.65,11.04z M8.96,40.22L5.5,58.27l18.89-8.95L8.96,40.22L8.96,40.22z
		 M3.85,66.87l12-5.69l24.7-12.04l9.83,19.83H3.45L3.85,66.87z"/>
	<path class="st1" d="M19.9,11.82l29.35,60.96h5.1L24.04,9.82L19.9,11.82L19.9,11.82z M29.55,5.03l29.83,61.78l-4.14,2L24.45,5.03
		H29.55z"/>
</g>
</svg>
