<?xml version="1.0" encoding="utf-8"?>
<!-- Generator: Adobe Illustrator 25.0.0, SVG Export Plug-In . SVG Version: 6.00 Build 0)  -->
<svg version="1.1" id="Capa_1" xmlns="http://www.w3.org/2000/svg" xmlns:xlink="http://www.w3.org/1999/xlink" x="0px" y="0px"
	 viewBox="0 0 187 173" style="enable-background:new 0 0 187 173;" xml:space="preserve">
<style type="text/css">
	.st0{opacity:0.3;}
	.st1{fill-rule:evenodd;clip-rule:evenodd;fill:#00C7FF;}
</style>
<g class="st0">
	<g>
		<path class="st1" d="M163.43,81l0.63,2.15c-8.54,9.6-17.64,19.29-25.87,29.08l-9.9,10.9c-1.02,1.13-2.12,2.03-3.25,2.75
			c-2.74,1.73-5.73,2.33-8.51,2.09c-2.84-0.25-5.46-1.4-7.41-3.16c-0.75-0.68-1.4-1.44-1.92-2.28c-1.82-2.89-2.44-6.14-1.44-9.93
			c0.85-3.22,2.94-6.78,6.59-10.8l25.78-28.39l2.3,0.54c3.05,0.72,6.23,1.44,9.63,2.16c3.14,0.67,6.54,1.36,10.28,2.07l2.41,0.46
			L163.43,81L163.43,81z M132.28,106.84l19.71-22.15c-1.2-0.25-2.4-0.5-3.61-0.76c-2.5-0.53-4.99-1.09-7.5-1.67l-22.63,24.93
			c-2.74,3.01-4.24,5.45-4.76,7.44c-0.38,1.42-0.16,2.62,0.49,3.65c0.15,0.23,0.33,0.44,0.53,0.63c0.68,0.61,1.63,1.02,2.7,1.11
			c1.13,0.1,2.38-0.17,3.57-0.92c0.56-0.35,1.1-0.8,1.6-1.36L132.28,106.84z"/>
		<path class="st1" d="M160,69.38l-42.01-11.7l-14.2-3.89c-0.73-0.2-1.42-0.29-2.08-0.29c-1.41,0.01-2.6,0.45-3.51,1.14
			c-0.85,0.65-1.45,1.51-1.69,2.39c-0.07,0.27-0.11,0.54-0.11,0.82c0.01,1.23,0.46,2.35,1.54,3.35c1.51,1.4,4.08,2.65,8.01,3.72
			l0.84,0.23c19.43,5.33,33.95,9.31,53.54,13.05l-1.49,7.86c-19.73-3.76-34.44-7.79-54.14-13.2l-0.84-0.23
			c-5.24-1.44-8.91-3.32-11.35-5.59c-2.88-2.67-4.1-5.74-4.11-9.15c0-0.99,0.13-1.98,0.4-2.96c0.7-2.54,2.3-4.92,4.56-6.64
			c2.21-1.69,5.06-2.78,8.3-2.79c1.34-0.01,2.75,0.17,4.22,0.58l14.2,3.9l37.56,10.46l-0.18,0.05l2.56,8.8L160,69.38z"/>
	</g>
	<g>
		<path class="st1" d="M25.06,101.49l-0.62-2.16c8.54-9.6,17.64-19.29,25.87-29.08l9.9-10.9c1.02-1.13,2.12-2.03,3.25-2.75
			c2.74-1.73,5.73-2.33,8.51-2.09c2.84,0.25,5.46,1.4,7.41,3.16c0.75,0.68,1.4,1.45,1.92,2.28c1.82,2.89,2.44,6.14,1.44,9.93
			c-0.85,3.22-2.94,6.78-6.59,10.8l-25.78,28.39l-2.3-0.54c-3.05-0.72-6.23-1.44-9.63-2.16c-3.14-0.67-6.54-1.36-10.28-2.07
			l-2.41-0.46L25.06,101.49L25.06,101.49z M56.21,75.65L36.5,97.79c1.2,0.25,2.4,0.5,3.61,0.76c2.5,0.53,4.99,1.09,7.51,1.67
			l22.63-24.93c2.73-3.01,4.24-5.45,4.76-7.44c0.38-1.42,0.16-2.62-0.49-3.65c-0.15-0.23-0.33-0.44-0.53-0.63
			c-0.68-0.61-1.63-1.02-2.71-1.11c-1.13-0.1-2.38,0.17-3.57,0.92c-0.56,0.35-1.1,0.8-1.6,1.36L56.21,75.65z"/>
		<path class="st1" d="M28.44,113.09l42.07,11.72l14.2,3.89c0.73,0.2,1.42,0.29,2.08,0.29c1.41-0.01,2.6-0.45,3.5-1.14
			c0.85-0.65,1.45-1.51,1.69-2.39c0.07-0.27,0.11-0.54,0.11-0.82c-0.01-1.23-0.46-2.35-1.54-3.35c-1.51-1.4-4.08-2.65-8.01-3.72
			l-0.84-0.23c-19.43-5.33-33.95-9.31-53.54-13.04l1.49-7.86c19.73,3.76,34.44,7.79,54.14,13.2l0.84,0.23
			c5.24,1.44,8.91,3.32,11.35,5.59c2.88,2.66,4.09,5.74,4.11,9.15c0,0.99-0.13,1.98-0.4,2.95c-0.7,2.54-2.29,4.92-4.56,6.64
			c-2.22,1.69-5.06,2.78-8.3,2.79c-1.34,0.01-2.75-0.17-4.22-0.58l-14.2-3.9l-37.35-10.4L28.44,113.09z"/>
	</g>
	<g>
		<path class="st1" d="M84.19,100.9c3.42-0.99,5.4-4.59,4.4-8.01c-0.99-3.42-4.59-5.4-8.01-4.4c-3.42,0.99-5.4,4.59-4.4,8.01
			C77.17,99.92,80.77,101.89,84.19,100.9z"/>
		<path class="st1" d="M106.98,94.27c3.42-0.99,5.4-4.59,4.4-8.01c-0.99-3.42-4.59-5.4-8.01-4.4c-3.42,0.99-5.4,4.59-4.4,8.01
			C99.97,93.29,103.56,95.27,106.98,94.27z"/>
	</g>
</g>
</svg>
