<?xml version="1.0" encoding="utf-8"?>
<!-- Generator: Adobe Illustrator 25.0.0, SVG Export Plug-In . SVG Version: 6.00 Build 0)  -->
<svg version="1.1" id="Capa_1" xmlns="http://www.w3.org/2000/svg" xmlns:xlink="http://www.w3.org/1999/xlink" x="0px" y="0px"
	 viewBox="0 0 85 87" style="enable-background:new 0 0 85 87;" xml:space="preserve">
<style type="text/css">
	.st0{opacity:0.3;}
	.st1{fill:#00C7FF;}
</style>
<g class="st0">
	<path class="st1" d="M72.54,19.31c-0.1,1.23-0.19,2.4-0.29,3.57c-0.36,4.07-0.72,8.15-1.09,12.22c-0.31,3.5-0.64,7-0.95,10.5
		c-0.36,4-0.7,8-1.06,12c-0.35,3.96-0.72,7.93-1.08,11.89c-0.26,2.93-0.53,5.85-0.78,8.78c-0.03,0.37-0.13,0.59-0.54,0.7
		c-7.58,2.09-15.15,4.19-22.74,6.27c-0.44,0.12-0.97,0.11-1.4-0.01c-6.11-1.68-12.22-3.38-18.32-5.08c-1.43-0.4-2.86-0.8-4.3-1.18
		c-0.34-0.09-0.47-0.25-0.5-0.6c-0.47-5.45-0.96-10.89-1.45-16.34c-0.39-4.35-0.8-8.7-1.19-13.05c-0.36-3.98-0.69-7.97-1.05-11.95
		c-0.5-5.65-1-11.3-1.51-16.95c-0.02-0.24-0.03-0.48-0.05-0.77C33.68,19.31,53.06,19.31,72.54,19.31z M52.28,53.59
		c0,0.28,0.01,0.47,0,0.65c-0.26,2.76-0.53,5.52-0.76,8.28c-0.03,0.4-0.21,0.53-0.55,0.62c-2.37,0.63-4.73,1.29-7.11,1.9
		c-0.35,0.09-0.78,0.08-1.13-0.02c-2.28-0.59-4.56-1.24-6.84-1.83c-0.47-0.12-0.67-0.29-0.7-0.8c-0.1-1.54-0.27-3.08-0.39-4.61
		c-0.03-0.46-0.18-0.64-0.67-0.63c-2.06,0.03-4.13,0.02-6.2,0c-0.47,0-0.6,0.13-0.55,0.61c0.33,3.44,0.64,6.89,0.92,10.34
		c0.04,0.48,0.21,0.67,0.65,0.79c4.7,1.29,9.39,2.6,14.08,3.89c0.22,0.06,0.48,0.07,0.7,0.01c4.7-1.29,9.39-2.6,14.08-3.88
		c0.46-0.12,0.63-0.35,0.66-0.8c0.09-1.2,0.21-2.41,0.32-3.61c0.52-5.81,1.04-11.63,1.56-17.45c0.08-0.86,0.08-0.86-0.77-0.86
		c-8.39,0-16.78,0.01-25.17,0.01c-0.2,0-0.4,0-0.67,0c-0.22-2.48-0.43-4.92-0.65-7.44c0.34,0,0.6,0,0.85,0
		c8.82,0.01,17.64,0.01,26.46,0.03c0.55,0,0.73-0.16,0.77-0.71c0.14-1.98,0.32-3.97,0.51-5.95c0.07-0.77,0.09-0.78-0.7-0.78
		c-6.08,0.01-12.17,0.02-18.25,0.02c-5.62,0-11.24,0-16.86,0c-0.25,0-0.5,0-0.83,0c0.1,1.25,0.19,2.39,0.29,3.54
		c0.29,3.22,0.58,6.45,0.86,9.67c0.24,2.74,0.48,5.48,0.74,8.22c0.07,0.77,0.09,0.76,0.86,0.76c7.93,0.01,15.85,0.01,23.78,0.02
		C51.78,53.59,52,53.59,52.28,53.59z"/>
	<path class="st1" d="M43.96,14.11c0-3.71,0-7.35,0-11.08c0.92,0,1.83,0.07,2.72-0.02c0.88-0.08,1.38,0.23,1.78,1.02
		c0.49,0.98,1.12,1.87,1.75,2.9c0.63-1.03,1.27-1.95,1.78-2.95c0.38-0.74,0.85-1.05,1.69-0.97c0.9,0.08,1.81,0.02,2.75,0.02
		c0,3.72,0,7.38,0,11.07c-1.19,0-2.37,0-3.62,0c0-1.74,0-3.47,0-5.21c-0.05-0.02-0.11-0.04-0.16-0.06
		c-0.81,1.24-1.61,2.47-2.47,3.78c-0.85-1.31-1.66-2.54-2.46-3.78c-0.04,0.01-0.09,0.02-0.13,0.02c0,1.74,0,3.49,0,5.26
		C46.34,14.11,45.17,14.11,43.96,14.11z"/>
	<path class="st1" d="M30.41,14.11c-1.23,0-2.41,0-3.66,0c0-1.23,0-2.43,0-3.67c-1.15,0-2.24,0-3.4,0c0,1.2,0,2.42,0,3.67
		c-1.26,0-2.45,0-3.68,0c0-3.67,0-7.34,0-11.04c1.2,0,2.38,0,3.63,0c0,1.19,0,2.37,0,3.58c1.16,0,2.25,0,3.41,0
		c0-1.17,0-2.35,0-3.58c1.27,0,2.46,0,3.69,0C30.41,6.75,30.41,10.41,30.41,14.11z"/>
	<path class="st1" d="M42.28,3.07c0,1.21,0,2.37,0,3.61c-1.05,0-2.1,0-3.22,0c0,2.51,0,4.95,0,7.43c-1.26,0-2.44,0-3.7,0
		c0-2.45,0-4.89,0-7.4c-1.12,0-2.17,0-3.26,0c0-1.25,0-2.43,0-3.64C35.5,3.07,38.88,3.07,42.28,3.07z"/>
	<path class="st1" d="M58.37,3.07c1.24,0,2.42,0,3.67,0c0,0.24,0,0.43,0,0.63c0,2.05,0.02,4.09-0.01,6.14
		c-0.01,0.53,0.17,0.65,0.67,0.64c1.3-0.03,2.6-0.01,3.91-0.01c0.2,0,0.4,0,0.63,0c0,1.25,0,2.43,0,3.64c-2.96,0-5.89,0-8.86,0
		C58.37,10.43,58.37,6.77,58.37,3.07z"/>
</g>
</svg>
