<?xml version="1.0" encoding="utf-8"?>
<!-- Generator: Adobe Illustrator 25.0.0, SVG Export Plug-In . SVG Version: 6.00 Build 0)  -->
<svg version="1.1" id="Capa_1" xmlns="http://www.w3.org/2000/svg" xmlns:xlink="http://www.w3.org/1999/xlink" x="0px" y="0px"
	 viewBox="0 0 1080 1080" style="enable-background:new 0 0 1080 1080;" xml:space="preserve">
<style type="text/css">
	.st0{fill:#00C7FF;}
</style>
<g>
	<path class="st0" d="M277.98,459.83c-1.71,6.23-3.42,12.33-5.49,18.44c-2.81,8.18-5.98,16.36-9.04,24.54
		c-0.12,0.49-0.49,0.85-0.85,1.34c-0.85-0.85-1.59-1.83-0.98-3.3c1.95-4.76,3.66-9.65,5.49-14.53c0.85-2.44,1.59-4.76,2.32-7.2
		l-0.98-0.37c-5.01,11.84-9.16,24.18-13.68,36.26l-13.92,36.26h-0.24l0.73-4.88c-2.93,5.98-5.37,15.51-5.01,18.93
		c1.22-2.93,2.2-5.37,3.3-8.3l2.81-1.83c0-0.37-0.24-0.98-0.12-1.1c1.34-0.98,1.34-2.32,1.71-3.54c1.83-4.76,3.3-9.65,5.62-14.16
		c1.22-2.2,1.95-4.64,2.81-7.08c0.61-1.47,0.98-3.05,1.46-4.52c0.37-0.98,1.34-1.71,1.34-3.17c0-1.1,1.22-2.32,1.71-3.54
		c1.59-4.15,3.05-8.3,4.52-12.45c0.24-0.61,0.85-1.1,1.22-1.59c-0.24,1.34-0.49,2.69-0.85,4.03l-23.08,63.86l-0.61-2.08h-0.61
		c-0.61,1.83-1.34,3.66-1.83,5.5c-2.08,6.84-4.27,13.67-7.33,20.15c-2.08,4.52-2.93,9.4-3.17,14.53c1.83-5.13,3.54-10.13,5.37-15.14
		h0.24l-1.47,8.91c-2.44,12.09-4.88,24.05-7.2,36.02c-2.08,10.87-4.03,21.61-5.98,32.48l-0.24,1.34
		c-2.69,6.59-2.32,13.67-2.81,20.51c-0.73,8.42-1.1,16.97-1.59,25.4c-0.12,2.32-0.49,4.52,0,6.84c0.85,2.93,2.69,4.64,5.37,5.5
		c0.49,0.12,0.85,0.37,1.22,0.61c0.12,0,0.12,0.12,0.12,0.61l-4.27,0.37c1.1,2.44,3.3,2.32,5.37,2.93c0.24,0.73,0.37,1.59,0.61,2.32
		c-0.37,0.24-0.49,0.37-0.61,0.49c-4.52,1.46-8.55,0.37-12.09-2.56c-2.56-2.2-3.17-5.37-3.78-8.55c-1.71-8.67-1.22-17.58-0.37-26.37
		c2.2-25.15,6.84-50.06,12.09-74.85c3.91-18.56,8.42-36.87,14.41-54.82c3.66-11.23,7.45-22.47,11.11-33.58c0-0.12,0-0.24,0.12-0.37
		c3.91-7.57,5.37-16,8.67-23.81c3.17-7.81,6.1-15.75,9.04-23.81c3.42-9.65,6.59-19.54,9.89-29.3c0.61-1.83,0.85-3.66,0.61-5.86
		l-3.79,3.3c-2.56,2.44-5.13,4.64-7.45,7.2c-1.34,1.47-2.32,3.54-3.66,5.13c-7.45,8.42-14.9,16.85-22.47,25.15
		c-2.69,2.93-5.74,5.49-8.55,8.42c-1.47,1.47-2.81,3.17-4.27,4.88c-1.59,1.83-2.93,4.15-5.01,5.49c-3.54,2.2-6.1,5.25-8.67,8.3
		c-4.4,5.01-9.89,8.55-16,10.87c-1.59,0.61-3.05,0.37-4.27-0.85c-4.64-0.37-6.23-1.83-6.47-6.35c-0.12-2.32-0.12-4.76,0.12-7.2
		c1.22-10.74,3.66-21.37,5.98-31.99c0.85-3.42,1.47-6.96,2.32-10.99c-1.1,0.73-1.71,0.98-2.2,1.47c-2.56,2.81-5.01,5.74-7.69,8.42
		l-15.75,16.73c-1.34,1.46-2.56,3.17-3.66,4.88c-3.54,5.49-7.81,10.13-12.09,14.9c-8.67,9.52-17.34,19.05-26.13,28.33
		c-2.81,3.05-5.98,5.74-9.28,8.3c-4.15,3.17-7.69,3.05-12.21-0.24c-1.1-4.27,0.24-8.3,1.59-12.33c5.86-17.83,14.04-34.68,22.22-51.4
		c4.88-10.01,10.13-19.78,15.26-29.67c0.85-1.83,1.95-3.54,3.05-5.37c1.34,0,2.56-0.12,4.27-0.12l1.34-1.83
		c0.98,0.49,1.83,0.85,2.69,1.34c1.71,2.44,1.47,4.52-0.49,6.84c-1.95,2.08-3.3,4.64-4.64,7.2c-10.87,20.88-21.37,41.88-30.4,63.61
		c-1.1,2.56-2.08,5.25-2.69,8.3c0.37-0.37,0.73-0.49,1.1-0.85c3.42-3.05,6.72-6.23,10.01-9.4c3.17-3.05,5.74-6.59,8.3-10.01
		c4.27-5.49,9.04-10.74,13.68-15.87c6.84-7.69,13.92-15.14,20.51-23.08c3.05-3.66,5.86-7.45,9.04-10.99
		c2.44-2.81,4.88-5.37,7.45-8.06c0.73-0.73,1.46-1.59,2.32-2.2c2.08-1.46,3.79-3.66,6.96-2.08c3.66,1.83,6.84,3.91,6.47,8.55
		c-0.24,4.27-0.85,8.42-1.71,12.58c-1.47,7.81-2.93,15.63-5.01,23.2c-0.98,3.79-1.47,7.57-2.08,11.36c-0.24,1.22-0.12,2.69-0.12,4.4
		c3.91-1.95,7.08-4.27,9.77-6.96c7.33-7.08,14.65-14.16,21.61-21.61c12.82-13.43,25.27-27.23,37.97-40.78
		c2.08-2.32,4.4-4.4,6.72-6.47c1.83-1.47,3.79-2.81,5.86-4.27c1.1,1.47,2.08,2.56,3.05,3.66c0.49-0.12,0.85-0.37,1.34-0.49
		c2.44-0.73,3.42-0.12,4.27,2.32C278.84,452.5,278.84,456.29,277.98,459.83z M108.51,530.04l-0.61-0.37
		c-2.2,4.27-4.27,8.55-5.74,13.06c-0.12,0.49,0.12,1.22,0.24,2.44L108.51,530.04z M180.91,527.96c1.22,0.85,2.2,0.98,3.79-0.37
		c-1.34-0.98-2.44-1.71-3.79-2.56V527.96z M188.61,532.84c-1.95-1.95-3.91-2.93-6.84-2.08c1.1,0.24,1.95,0.49,2.81,0.61l0.37,1.71
		C186.16,532.97,187.26,532.97,188.61,532.84z M190.56,525.64c-1.83-0.37-2.93-0.37-3.17,1.59
		C188.24,526.74,189.22,526.37,190.56,525.64z M216.69,509.77l-0.73-0.85c-3.05,2.56-6.23,5.13-9.65,8.06
		C211.56,516.36,213.88,512.7,216.69,509.77z M209.36,733.82l2.08,3.17c0.85-0.37,1.46-0.73,2.32-0.98
		C212.17,733.21,212.17,733.21,209.36,733.82z"/>
	<path class="st0" d="M281.03,525.64c-0.98,1.22-1.59,2.81-2.81,4.88c2.93-1.59,5.25-2.93,7.45-4.64
		c7.94-5.98,15.87-11.97,23.93-17.95l5.98-4.76c0.73-0.49,1.59-0.73,2.44-1.22l1.83,4.15c1.59-0.37,2.81-2.08,4.64-0.85
		c2.2,3.05,1.1,6.1,0,9.16c-0.73,1.95-1.71,3.79-2.69,5.62l-10.26,20.64c-0.37,0.73-0.85,1.46-1.34,2.32
		c-1.1-1.34-0.24-2.56,0.12-3.66c0.61-1.47,1.22-2.93,1.95-4.4c1.59-2.2,2.93-4.52,3.79-7.08c-1.71,2.08-3.91,4.03-3.79,7.08
		c-1.59,0.73-2.08,2.32-2.81,3.79c-0.85,1.83-1.71,3.66-2.81,5.86l-1.95-2.2c-0.37,0.24-0.85,0.49-1.59,0.86
		c-0.49-0.49-0.98-0.98-1.59-1.47c0.61-2.2,1.95-4.03,1.34-6.47c-0.12-0.61,0.49-1.34,0.85-2.08l5.74-11.23
		c0.24-0.61,0.49-1.34,1.1-2.69l-10.5,7.45c-0.37,0-0.73,0-1.1,0.12c-1.22-0.37-1.47-0.24-2.44,1.34c0.49-0.12,1.22-0.24,1.83-0.24
		c0.98,0.37,1.59-0.12,2.08-0.85c1.1-0.49,2.2-0.85,3.91-1.47c-5.37,4.76-10.87,8.3-16.36,11.72c-2.93,1.83-5.98,3.3-9.04,4.88
		c-3.79,1.95-7.57,1.34-11.23-0.12c-1.83-0.73-2.56-2.2-2.44-4.27c0.12-4.27,1.46-8.18,3.66-11.6c2.69-3.91,5.37-7.69,8.43-11.23
		c6.47-7.45,13.68-14.16,21.86-19.78c2.93-1.95,6.23-3.3,9.65-4.15c1.47-0.37,2.69-1.34,4.15-2.08c1.47-0.73,2.93-1.59,4.52-1.95
		c2.56-0.73,4.27,0.98,5.86,2.81c-0.49-0.12-0.98-0.37-1.71-0.61c-0.12,0.61-0.37,1.22-0.49,2.08c1.1,0.12,2.2,0.37,3.17,0.49
		c2.44,2.44,3.17,5.13,1.71,8.42c-2.69,1.22-2.93,1.1-4.52-1.22c-0.49,0.24-1.1,0.49-1.71,0.85c-0.37-0.37-0.85-0.61-1.22-0.98
		c-0.24-0.37-0.37-0.73-0.73-1.46c-1.59,0.73-3.17,1.22-4.52,2.08c-4.64,2.93-9.4,5.98-13.92,9.04c-2.56,1.59-4.88,3.54-7.33,5.25
		C287.62,516.97,284.57,521.49,281.03,525.64z M276.51,536.63c-0.73,0.24-1.46,0.37-2.2,0.49
		C276.26,537.85,276.88,537.61,276.51,536.63z M278.83,534.68c0.73,0.24,1.22,0.49,1.71,0.61c0.24-0.49,0.49-0.98,1.1-1.95
		L278.83,534.68z M295.19,528.82c0.12,0.12,0.24,0.24,0.24,0.49l0.73-0.85L295.19,528.82z"/>
	<path class="st0" d="M378.83,500.49c0,2.81-2.2,5.86-5.37,6.84c-0.49-0.73-1.1-1.47-1.59-2.32c-0.24,0-0.37-0.12-0.61-0.12
		c-1.1-0.12-2.32,1.1-3.42-0.12c-0.12-0.12-0.98,0.24-1.47,0.49c-1.71,0.73-3.42,1.59-5.13,2.56c-3.91,2.08-7.2,4.88-10.38,7.81
		v-0.12c-1.1,1.59-2.08,3.3-3.42,4.76c-1.71,2.2-3.78,4.03-5.62,6.1c-1.22,1.47-2.32,3.05-3.05,4.64c-1.47,3.3-3.42,6.23-5.25,9.4
		l-4.4-2.44c-0.49-1.83-1.1-3.91-1.59-6.1c5.13-13.92,12.58-26.98,16.85-41.51l3.79,1.83c-0.12,0.73-0.12,1.59-0.24,2.56
		c1.1,0.24,2.2,0.37,3.66,0.61c-0.61,2.69-1.22,5.13-1.95,7.94c0.85-0.61,1.59-1.1,2.2-1.59c4.4-3.79,9.52-6.47,15.26-7.57
		c1.46-0.37,2.93-0.49,4.27-0.37c0.73,0,1.46,0.49,1.95,1.1c0.85,0.85,1.46,2.08,2.32,3.05c0.37,0.37,1.22,0.24,1.83,0.49
		C378.46,498.78,378.83,499.39,378.83,500.49z M350.86,515.51c-0.12-0.37-0.24-0.61-0.37-1.22c-3.3,1.95-5.62,4.76-8.06,7.45
		c-0.49,0.49-0.49,1.47-0.85,3.05c2.81-3.05,4.88-5.62,7.2-8.06C349.28,516.24,350.13,515.99,350.86,515.51z M372.96,495.97
		c-1.83-1.47-3.17-0.85-4.52-0.61c-5.13,1.22-9.89,3.05-14.53,6.72C360.51,499.88,366.49,498.05,372.96,495.97z"/>
	<path class="st0" d="M384.07,538.95c-0.49-0.24-1.1-0.37-1.59-0.37c-5.25-0.49-7.2-3.17-6.1-8.3c0.12-0.73,0.37-1.46,0.37-2.2
		c-0.24-4.52,1.47-8.3,4.03-11.97c0.49-0.73,0.73-1.47,1.22-2.2c0.73-0.61,1.71-1.22,1.46-2.44c0.12-0.12,0.12-0.24,0.37-0.37
		c1.46-0.61,2.56-1.71,2.93-3.42l2.81-2.56c0.37-0.12,0.85-0.24,1.22-0.49c2.32-1.95,4.76-3.79,7.08-5.74
		c1.1-0.85,1.95-1.71,2.93-2.56c0.24-0.24,0.61-0.37,0.61-0.49c-0.24-2.44,1.71-2.56,3.05-3.3c4.03-2.32,8.3-3.66,12.82-4.64
		c1.22-0.24,2.56-0.12,3.91-0.24c0.98,0,1.83,0.24,2.44,0.98c0.98,1.22,2.44,1.59,3.91,1.83c4.52,0.73,7.45,5.62,6.23,9.89
		c-0.37,1.1-0.61,2.32-2.08,2.69c-0.98,0.24-1.47,0-2.81-1.71c-0.37,0.24-0.61,0.37-1.22,0.85c-0.37-0.61-0.85-1.1-1.1-1.71
		c-0.24-0.37,0-0.85-0.12-1.34c-0.12-2.32-0.98-3.17-3.3-3.05c-3.17,0.12-6.23,0.85-9.16,2.08c-2.2,0.85-4.4,1.71-6.35,2.93
		c-6.23,3.78-12.45,7.69-17.34,13.31c-3.05,3.54-5.49,7.45-7.2,11.84c-0.49,1.22-0.61,2.69-0.98,4.27c1.34,0.24,2.44,0.61,3.42,0.49
		c10.75-0.61,20.51-4.03,29.06-10.75c2.2-1.71,3.79-3.91,5.86-6.1c0.73,0.98,2.56,0.61,3.42,2.08c1.1-0.12,1.22,0.85,1.47,1.59
		c0.12,0.85,0.24,1.71,0,2.44c-0.73,2.44-2.44,4.27-4.15,6.1c-3.91,4.03-8.67,6.72-13.8,8.91c-5.37,2.32-11.11,4.03-17.09,4.52
		C388.1,539.93,386.03,540.05,384.07,538.95z M377.48,531.14c-0.49,2.93-0.12,3.54,2.93,5.13
		C379.19,534.19,378.46,532.72,377.48,531.14z"/>
	<path class="st0" d="M432.3,529.91c-0.12-1.83,0-3.79,0.37-5.49c1.46-6.84,4.03-13.19,8.55-18.56c2.2-2.56,4.03-5.25,6.35-7.69
		c1.47-1.47,3.42-2.81,5.25-3.79c1.47-0.85,2.44-1.83,3.17-3.3c1.59-3.54,5.01-4.64,8.3-5.01c2.08-0.37,3.3,1.47,3.91,2.81
		c1.46,0.85,2.69,1.22,3.17,1.95c0.85,1.47,1.95,3.3,1.1,5.01c-0.98,1.95-0.49,3.54-0.12,5.49c1.22,4.64,1.47,9.4,0.98,14.16
		c-0.37,3.91-2.08,7.2-4.03,10.5c-2.56,4.4-6.47,8.18-10.99,10.75c-3.05-0.73-5.98-0.98-8.91,0.24c-1.34,0.61-2.81,1.22-4.27,1.59
		C437.67,540.78,432.79,534.8,432.3,529.91z M445.85,511.84c2.08-1.59,4.03-3.17,5.49-5.49c0.98-1.47,2.44-2.56,3.79-3.79
		c1.34-1.22,2.81-2.44,4.15-3.79c1.1-1.1,2.08-2.44,3.3-4.03l-0.98-1.34c-1.83,1.22-3.54,2.32-5.25,3.54
		c-4.4,2.93-7.33,7.45-11.48,10.87c-3.66,3.05-5.13,7.81-7.08,12.09C439.75,516.48,442.8,514.16,445.85,511.84z M450.86,532.6
		c3.17-0.61,5.62-2.32,7.57-4.88c2.2-2.93,5.25-5.13,6.72-8.55c0.12-0.24,0.85-0.12,1.47-0.12c2.2-2.93,1.59-6.59,1.34-10.62
		c-0.98,2.81-1.83,5.25-2.56,7.69c1.59-6.23,1.22-12.21-1.1-18.8l-0.49,2.32c-0.24-0.37-0.49-0.73-0.61-1.1h-0.61
		c-4.4,2.81-8.3,6.59-12.09,10.38c-2.93,2.81-4.88,6.23-6.96,9.65c-2.2,3.42-3.42,7.33-2.44,11.72c2.08,0.37,4.03,0.61,5.98,0.98
		c0,0.12,0,0.24-0.12,0.37h-5.37c1.1,2.08,2.44,2.81,4.52,2.2C447.68,533.46,449.15,532.84,450.86,532.6z"/>
	<path class="st0" d="M455.37,537.97c1.1-1.59,0.73-3.42,1.71-5.01c0.73-1.22,1.22-2.08,2.69-2.08c3.79-0.12,7.57-0.73,11.23-0.24
		c4.15,0.61,7.69-0.61,11.36-1.95c7.08-2.93,7.45-4.76,6.59-11.84c-0.37-2.69-1.34-5.37-1.83-8.06c-0.61-3.42-1.95-6.84-1.1-10.87
		c0.24,0.98,0.37,1.47,0.61,2.2c4.4-6.96,11.11-10.5,18.68-12.82c-0.24-0.24-0.37-0.49-0.61-0.85l0.12-0.49
		c2.93-0.85,6.35-2.08,9.04-0.12c2.44,1.59,5.74,3.3,5.49,7.45c-0.61,1.95-2.08,3.3-4.64,3.3c-0.24-0.49-0.37-1.1-0.61-1.47
		c-6.72,0.37-13.31,0.85-19.54,4.4c0,0.12-0.12,0.61-0.12,0.98l1.83,17.83c0.24,2.2,0.61,4.4,0.85,6.59c0.12,0.98,0.24,1.95,0,2.81
		c-2.08,5.49-5.49,9.4-11.36,11.23c-5.13,1.59-10.38,2.2-15.63,2.08c-2.08-0.12-4.03,0.24-5.98,0.49
		C460.62,541.76,458.06,539.93,455.37,537.97z M490.78,497.68c0,0,0-0.12-0.12-0.24l-0.37,0.37c0,0.12,0.12,0.24,0.24,0.37
		C490.54,498.05,490.66,497.92,490.78,497.68z"/>
	<path class="st0" d="M782.59,448.47l-2.08,3.54c-3.05,1.22-3.66,0.61-5.74-2.32c-0.37,0.12-0.85,0.24-1.59,0.37
		c-0.85-1.59-1.59-3.3-2.44-5.01c-2.32-1.34-4.76-1.59-7.33-1.71c-6.84-0.49-13.55,0.37-20.15,1.83
		c-11.11,2.32-21.98,5.98-32.6,9.89c-2.69,1.1-5.5,1.47-8.18,2.44c-3.42,1.34-6.72,2.93-10.01,4.4
		c-6.72,3.17-13.06,7.08-19.41,10.87c-28.21,16.85-54.21,36.39-76.19,60.81c-6.96,7.81-13.43,16.12-18.56,25.28
		c-3.3,6.1-5.86,12.45-6.96,19.29c-0.61,4.03-0.85,8.06,0.24,11.97c0.98,3.78,3.17,6.47,6.96,7.94c4.64,1.71,9.52,2.56,14.53,2.69
		c12.33,0.49,24.42-1.59,36.39-4.88c9.04-2.56,17.95-5.62,26.86-8.55c1.1-0.37,2.2-0.73,3.3-1.22l1.1,1.95
		c14.53-5.98,29.18-11.72,42.49-20.63c-5.49,1.34-9.89,5.37-15.38,6.71c-0.12-0.24-0.24-0.49-0.37-0.61
		c0.49-0.37,0.98-0.73,1.46-0.98c9.89-5.13,19.05-11.11,28.21-17.34c7.33-5.01,14.41-10.38,21.37-16.12
		c2.56-2.08,4.76-4.52,7.81-6.1c0.49-0.24,1.1-0.98,1.34-1.47c0.98-2.44,3.05-4.03,4.76-5.86c3.78-4.15,7.57-8.3,11.23-12.58
		c0.98-1.1,1.71-2.44,2.56-3.79c-1.46-0.73-2.69-0.12-3.79,0.24l-3.66,1.1c-1.22-2.08-2.44-3.91-3.42-5.62
		c0.12-4.76,3.17-5.74,6.47-6.47c3.42-0.61,6.47-0.12,9.16,2.44c0.85,0.85,1.59,1.59,1.59,2.93c0,0.85,0.61,1.71,1.1,3.17
		c-0.37,2.32-0.98,5.25-1.1,8.18c-0.12,1.22-0.49,2.08-1.1,3.05c-2.56,4.64-6.1,8.55-9.77,12.45
		c-14.16,14.65-29.92,27.47-46.64,39.07c-3.05,2.2-6.72,3.42-10.01,5.01c-0.98,0.49-1.83,0.98-2.69,1.59
		c-8.91,6.59-18.44,11.97-28.69,16.24l-12.94,5.5c-2.08,0.85-4.27,1.22-6.72,0.61l9.89-4.15c-0.98-0.37-1.95-0.61-2.69-0.98
		c-3.3,0.98-6.35,2.08-9.52,2.81c-2.69,0.61-4.27,2.56-6.11,4.52c0.85-0.24,1.71-0.61,2.81-0.85c0.37,0.37,0.61,0.73,1.22,1.46
		c-0.98,0.49-1.83,0.98-2.56,1.22c-8.06,2.93-16.12,5.37-24.67,6.47c-2.93,0.37-5.98,0.61-9.16,0.37c-1.59,0-3.42,0.24-5.01,0.85
		c-12.7,4.15-24.42,1.46-35.65-4.88c-3.79-2.08-6.72-5.13-8.06-9.65c0.25,0.24,0.49,0.37,1.47,0.85c-0.73-1.46-0.85-2.93-1.59-3.54
		c-1.22-0.73-1.22-1.83-1.71-2.81c-2.69-5.98-1.59-12.09,0-18.19c2.2-8.91,6.23-17.22,11.48-24.91c2.81-4.15,5.98-8.06,9.4-11.72
		c2.2-2.2,4.52-4.15,6.35-6.59c0.85-1.34,1.46-2.81,2.32-4.15c0.85-1.47,1.71-3.05,2.81-4.27c2.44-2.69,5.01-5.49,7.69-7.81
		c2.93-2.56,6.23-4.76,9.28-7.08l1.22,0.85c2.32-3.05,6.1-4.52,7.94-8.18l-0.85-1.83c15.02-11.72,29.91-23.81,47.13-32.23
		c7.2-3.54,14.65-6.47,21.98-9.65c0.98-0.49,1.95-0.85,2.81-1.47c11.48-7.2,23.69-12.82,37-16.12c4.03-0.85,8.06-1.47,12.33-1.22
		c2.2,0.12,4.64-1.1,6.59-2.2c1.22-0.61,2.44-1.34,3.79-1.47c5.5-0.73,10.99-0.85,16.36,0.49c6.1,1.59,12.21,7.81,13.8,13.8
		L782.59,448.47z M612.02,605.49c2.93-0.24,5.86,0.12,8.55-1.46C617.64,603.79,614.71,604.03,612.02,605.49z M620.93,603.91
		c1.83,0.37,1.95,0.37,4.27-0.73C623.25,603.54,621.91,602.69,620.93,603.91z M639.13,601.95c0.98-0.12,1.95-0.12,2.93-0.25
		c0-0.12,0-0.24-0.12-0.37c-0.85,0-1.83,0.12-2.81,0.24V601.95z M686.14,462.51l-1.71-0.49c0.12-0.61,0.24-1.22,0.49-1.83
		c-0.24-0.12-0.49-0.37-0.61-0.49c-12.21,6.96-24.3,13.8-35.65,22.34c0.49-0.12,0.98-0.12,1.46-0.37l6.59-3.42
		c4.15-2.2,8.06-4.88,12.82-5.49c0.61,0,1.1-0.37,1.59-0.73c3.42-2.08,6.96-4.27,10.38-6.47L686.14,462.51z M718.25,561.29
		c8.91-5.25,16.97-11.36,24.05-18.8C734.24,548.72,726.31,554.95,718.25,561.29z"/>
	<path class="st0" d="M791.13,525.64c-0.98,1.22-1.59,2.81-2.81,4.88c2.93-1.59,5.25-2.93,7.45-4.64
		c7.94-5.98,15.87-11.97,23.93-17.95l5.98-4.76c0.73-0.49,1.59-0.73,2.44-1.22l1.83,4.15c1.59-0.37,2.81-2.08,4.64-0.85
		c2.2,3.05,1.1,6.1,0,9.16c-0.73,1.95-1.71,3.79-2.69,5.62l-10.26,20.64c-0.37,0.73-0.86,1.46-1.34,2.32
		c-1.1-1.34-0.24-2.56,0.12-3.66c0.61-1.47,1.22-2.93,1.95-4.4c1.59-2.2,2.93-4.52,3.79-7.08c-1.71,2.08-3.91,4.03-3.79,7.08
		c-1.59,0.73-2.08,2.32-2.81,3.79c-0.85,1.83-1.71,3.66-2.81,5.86l-1.95-2.2c-0.37,0.24-0.85,0.49-1.59,0.86
		c-0.49-0.49-0.98-0.98-1.59-1.47c0.61-2.2,1.95-4.03,1.34-6.47c-0.12-0.61,0.49-1.34,0.86-2.08l5.74-11.23
		c0.24-0.61,0.49-1.34,1.1-2.69l-10.5,7.45c-0.37,0-0.73,0-1.1,0.12c-1.22-0.37-1.46-0.24-2.44,1.34c0.49-0.12,1.22-0.24,1.83-0.24
		c0.98,0.37,1.59-0.12,2.08-0.85c1.1-0.49,2.2-0.85,3.91-1.47c-5.37,4.76-10.87,8.3-16.36,11.72c-2.93,1.83-5.98,3.3-9.04,4.88
		c-3.79,1.95-7.57,1.34-11.23-0.12c-1.83-0.73-2.56-2.2-2.44-4.27c0.12-4.27,1.46-8.18,3.66-11.6c2.69-3.91,5.37-7.69,8.42-11.23
		c6.47-7.45,13.67-14.16,21.86-19.78c2.93-1.95,6.23-3.3,9.65-4.15c1.46-0.37,2.69-1.34,4.15-2.08c1.46-0.73,2.93-1.59,4.52-1.95
		c2.56-0.73,4.27,0.98,5.86,2.81c-0.49-0.12-0.98-0.37-1.71-0.61c-0.12,0.61-0.37,1.22-0.49,2.08c1.1,0.12,2.2,0.37,3.17,0.49
		c2.44,2.44,3.17,5.13,1.71,8.42c-2.69,1.22-2.93,1.1-4.52-1.22c-0.49,0.24-1.1,0.49-1.71,0.85c-0.37-0.37-0.85-0.61-1.22-0.98
		c-0.24-0.37-0.37-0.73-0.73-1.46c-1.59,0.73-3.17,1.22-4.52,2.08c-4.64,2.93-9.4,5.98-13.92,9.04c-2.56,1.59-4.88,3.54-7.33,5.25
		C797.72,516.97,794.67,521.49,791.13,525.64z M786.61,536.63c-0.73,0.24-1.47,0.37-2.2,0.49
		C786.37,537.85,786.98,537.61,786.61,536.63z M788.93,534.68c0.73,0.24,1.22,0.49,1.71,0.61c0.24-0.49,0.49-0.98,1.1-1.95
		L788.93,534.68z M805.29,528.82c0.12,0.12,0.25,0.24,0.25,0.49l0.73-0.85L805.29,528.82z"/>
	<path class="st0" d="M820.92,537.97c1.1-1.59,0.73-3.42,1.71-5.01c0.73-1.22,1.22-2.08,2.69-2.08c3.79-0.12,7.57-0.73,11.23-0.24
		c4.15,0.61,7.69-0.61,11.36-1.95c7.08-2.93,7.45-4.76,6.59-11.84c-0.37-2.69-1.34-5.37-1.83-8.06c-0.61-3.42-1.95-6.84-1.1-10.87
		c0.24,0.98,0.37,1.47,0.61,2.2c4.4-6.96,11.11-10.5,18.68-12.82c-0.24-0.24-0.37-0.49-0.61-0.85l0.12-0.49
		c2.93-0.85,6.35-2.08,9.04-0.12c2.44,1.59,5.74,3.3,5.5,7.45c-0.61,1.95-2.08,3.3-4.64,3.3c-0.25-0.49-0.37-1.1-0.61-1.47
		c-6.71,0.37-13.31,0.85-19.54,4.4c0,0.12-0.12,0.61-0.12,0.98l1.83,17.83c0.24,2.2,0.61,4.4,0.85,6.59c0.12,0.98,0.24,1.95,0,2.81
		c-2.08,5.49-5.49,9.4-11.36,11.23c-5.13,1.59-10.38,2.2-15.63,2.08c-2.08-0.12-4.03,0.24-5.98,0.49
		C826.17,541.76,823.6,539.93,820.92,537.97z M856.33,497.68c0,0,0-0.12-0.12-0.24l-0.37,0.37c0,0.12,0.12,0.24,0.24,0.37
		C856.08,498.05,856.21,497.92,856.33,497.68z"/>
	<path class="st0" d="M892.22,525.64c-0.98,1.22-1.59,2.81-2.81,4.88c2.93-1.59,5.25-2.93,7.45-4.64
		c7.94-5.98,15.87-11.97,23.93-17.95l5.98-4.76c0.73-0.49,1.59-0.73,2.44-1.22l1.83,4.15c1.59-0.37,2.81-2.08,4.64-0.85
		c2.2,3.05,1.1,6.1,0,9.16c-0.73,1.95-1.71,3.79-2.69,5.62l-10.26,20.64c-0.37,0.73-0.86,1.46-1.34,2.32
		c-1.1-1.34-0.24-2.56,0.12-3.66c0.61-1.47,1.22-2.93,1.95-4.4c1.59-2.2,2.93-4.52,3.79-7.08c-1.71,2.08-3.91,4.03-3.79,7.08
		c-1.59,0.73-2.08,2.32-2.81,3.79c-0.85,1.83-1.71,3.66-2.81,5.86l-1.95-2.2c-0.37,0.24-0.85,0.49-1.59,0.86
		c-0.49-0.49-0.98-0.98-1.59-1.47c0.61-2.2,1.95-4.03,1.34-6.47c-0.12-0.61,0.49-1.34,0.86-2.08l5.74-11.23
		c0.24-0.61,0.49-1.34,1.1-2.69l-10.5,7.45c-0.37,0-0.73,0-1.1,0.12c-1.22-0.37-1.46-0.24-2.44,1.34c0.49-0.12,1.22-0.24,1.83-0.24
		c0.98,0.37,1.59-0.12,2.08-0.85c1.1-0.49,2.2-0.85,3.91-1.47c-5.37,4.76-10.87,8.3-16.36,11.72c-2.93,1.83-5.98,3.3-9.04,4.88
		c-3.79,1.95-7.57,1.34-11.23-0.12c-1.83-0.73-2.56-2.2-2.44-4.27c0.12-4.27,1.46-8.18,3.66-11.6c2.69-3.91,5.37-7.69,8.42-11.23
		c6.47-7.45,13.67-14.16,21.86-19.78c2.93-1.95,6.23-3.3,9.65-4.15c1.46-0.37,2.69-1.34,4.15-2.08c1.46-0.73,2.93-1.59,4.52-1.95
		c2.56-0.73,4.27,0.98,5.86,2.81c-0.49-0.12-0.98-0.37-1.71-0.61c-0.12,0.61-0.37,1.22-0.49,2.08c1.1,0.12,2.2,0.37,3.17,0.49
		c2.44,2.44,3.17,5.13,1.71,8.42c-2.69,1.22-2.93,1.1-4.52-1.22c-0.49,0.24-1.1,0.49-1.71,0.85c-0.37-0.37-0.85-0.61-1.22-0.98
		c-0.24-0.37-0.37-0.73-0.73-1.46c-1.59,0.73-3.17,1.22-4.52,2.08c-4.64,2.93-9.4,5.98-13.92,9.04c-2.56,1.59-4.88,3.54-7.33,5.25
		C898.81,516.97,895.76,521.49,892.22,525.64z M887.7,536.63c-0.73,0.24-1.47,0.37-2.2,0.49
		C887.46,537.85,888.07,537.61,887.7,536.63z M890.02,534.68c0.73,0.24,1.22,0.49,1.71,0.61c0.24-0.49,0.49-0.98,1.1-1.95
		L890.02,534.68z M906.38,528.82c0.12,0.12,0.24,0.24,0.24,0.49l0.73-0.85L906.38,528.82z"/>
	<path class="st0" d="M922.01,537.97c1.1-1.59,0.73-3.42,1.71-5.01c0.73-1.22,1.22-2.08,2.69-2.08c3.79-0.12,7.57-0.73,11.23-0.24
		c4.15,0.61,7.69-0.61,11.36-1.95c7.08-2.93,7.45-4.76,6.59-11.84c-0.37-2.69-1.34-5.37-1.83-8.06c-0.61-3.42-1.95-6.84-1.1-10.87
		c0.24,0.98,0.37,1.47,0.61,2.2c4.4-6.96,11.11-10.5,18.68-12.82c-0.24-0.24-0.37-0.49-0.61-0.85l0.12-0.49
		c2.93-0.85,6.35-2.08,9.04-0.12c2.44,1.59,5.74,3.3,5.5,7.45c-0.61,1.95-2.08,3.3-4.64,3.3c-0.25-0.49-0.37-1.1-0.61-1.47
		c-6.71,0.37-13.31,0.85-19.54,4.4c0,0.12-0.12,0.61-0.12,0.98l1.83,17.83c0.24,2.2,0.61,4.4,0.85,6.59c0.12,0.98,0.24,1.95,0,2.81
		c-2.08,5.49-5.49,9.4-11.36,11.23c-5.13,1.59-10.38,2.2-15.63,2.08c-2.08-0.12-4.03,0.24-5.98,0.49
		C927.26,541.76,924.7,539.93,922.01,537.97z M957.42,497.68c0,0,0-0.12-0.12-0.24l-0.37,0.37c0,0.12,0.12,0.24,0.24,0.37
		C957.17,498.05,957.3,497.92,957.42,497.68z"/>
</g>
</svg>
