<?xml version="1.0" encoding="utf-8"?>
<!-- Generator: Adobe Illustrator 25.0.0, SVG Export Plug-In . SVG Version: 6.00 Build 0)  -->
<svg version="1.1" id="Capa_1" xmlns="http://www.w3.org/2000/svg" xmlns:xlink="http://www.w3.org/1999/xlink" x="0px" y="0px"
	 viewBox="0 0 222 169" style="enable-background:new 0 0 222 169;" xml:space="preserve">
<style type="text/css">
	.st0{opacity:0.29;fill:#00C7FF;}
</style>
<g>
	<path class="st0" d="M75.46,25.51c-6.29,0-11.61-0.11-16.92,0.09c-1.09,0.04-2.31,1.05-3.18,1.91c-4.78,4.7-11.64,4.94-16.16,0.46
		c-4.51-4.47-4.61-11.38-0.22-15.88c4.49-4.61,11.29-4.46,16.23,0.07c1.21,1.11,3.13,2.03,4.74,2.05
		c13.41,0.16,26.81,0.08,40.22,0.1c1.92,0,3.09-0.19,4.24-2.4c2.82-5.36,8.31-2.8,12.74-3.25c3.25-0.33,6.91-0.42,8.33,3.22
		c0.94,2.41,2.3,2.43,4.22,2.43c13.41-0.03,26.82,0.06,40.22-0.11c1.6-0.02,3.52-0.95,4.73-2.06c4.94-4.53,11.77-4.66,16.23-0.05
		c4.38,4.53,4.28,11.42-0.23,15.88c-4.51,4.47-11.31,4.18-16.2-0.46c-1.1-1.04-2.87-1.85-4.37-1.92c-4.89-0.24-9.81-0.09-15.66-0.09
		c1.51,1.25,2.25,1.93,3.05,2.51c15.58,11.4,25.45,26.49,29.57,45.38c0.27,1.25,1.41,2.89,2.52,3.28c3.16,1.09,4.53,3.15,4.6,6.27
		c0.06,3.35,0.12,6.71-0.01,10.05c-0.16,3.87-2.2,5.85-6.09,5.97c-3.48,0.1-6.97,0.11-10.46,0c-4.05-0.12-5.86-1.95-5.97-5.95
		c-0.08-2.81,0.11-5.64-0.05-8.44c-0.21-3.65,0.51-6.69,4.55-8.15c-3.35-16.45-11.45-29.74-25.1-38.98
		c-6.31-4.27-13.83-6.79-20.87-9.95c-1.97-0.89-4.2-1.26-5.23,1.61c-0.08,0.23-0.34,0.41-0.54,0.59c-3.08,2.82-17.21,1.79-20-1.24
		c-0.76-0.83-2.46-1.41-3.57-1.22c-21.02,3.65-42.45,25.02-46.47,46.3c-0.21,1.09,0.02,2.98,0.71,3.4c2.89,1.75,3.29,4.3,3.2,7.27
		c-0.09,2.95,0,5.9-0.03,8.85c-0.03,3.71-1.89,5.79-5.63,5.89c-3.75,0.1-7.51,0.07-11.26,0c-3.36-0.07-5.32-2.06-5.56-5.21
		c-0.3-3.86-0.54-7.85,0.11-11.62c0.33-1.94,2.62-3.56,4.1-5.26c0.85-0.97,2.49-1.68,2.7-2.72c4.04-19.88,14.52-35.45,31.04-47.08
		C74.06,26.84,74.33,26.54,75.46,25.51z"/>
	<path class="st0" d="M114.9,161.44c-5.09,0-10.18,0.03-15.27-0.01c-5.14-0.04-7.25-1.94-7.15-6.93c0.13-6.38,0.6-12.76,0.84-19.15
		c0.04-1.03-0.32-2.1-0.65-3.1c-3.23-9.89-7.93-19.02-14.8-26.88c-2.86-3.27-2.96-6.14-0.6-9.72c10.76-16.3,21.35-32.72,32.05-49.07
		c3.48-5.32,7.73-5.3,11.25,0.08c10.69,16.35,21.29,32.76,32.04,49.07c2.38,3.6,2.17,6.47-0.73,9.69
		c-7.21,7.98-11.86,17.42-14.86,27.68c-0.4,1.38,0.21,3.05,0.23,4.58c0.05,6.29,0.28,12.6-0.01,18.87
		c-0.17,3.54-2.95,4.85-6.26,4.88C125.62,161.47,120.26,161.44,114.9,161.44z M87.98,99.85c7.5,9.54,12.6,19.92,16.15,31.12
		c0.31,0.97,1.93,2.11,2.98,2.15c5.22,0.22,10.45,0.2,15.67,0.02c1.01-0.03,2.61-0.97,2.87-1.81c3.45-11.5,8.65-22.1,16.15-31.63
		c-6.9-10.55-13.7-20.96-20.51-31.37c-0.88,4.05-0.78,7.76-0.92,11.47c-0.09,2.25,0.59,3.48,2.71,4.64
		c7.27,3.95,10.38,12.19,7.9,19.93c-2.29,7.15-8.98,11.88-16.49,11.66c-7.5-0.22-14.09-5.39-15.91-12.49
		c-1.88-7.32,1.16-14.82,7.55-18.79c1.18-0.73,3.06-1.67,3.13-2.62c0.33-4.51,0.15-9.06,0.15-13.59c-0.31-0.03-0.61-0.06-0.92-0.1
		C101.69,78.83,94.9,89.23,87.98,99.85z M103.62,149.93c7.79,0,15.09,0,22.53,0c0-1.87,0-3.52,0-5.21c-7.67,0-15.07,0-22.53,0
		C103.62,146.58,103.62,148.13,103.62,149.93z M115.1,93.43c-2.93-0.11-5.76,2.5-5.94,5.45c-0.17,3,2.76,6.08,5.78,6.07
		c2.85-0.01,5.69-2.83,5.75-5.71C120.76,96.34,118.06,93.54,115.1,93.43z"/>
</g>
</svg>
