<?xml version="1.0" encoding="utf-8"?>
<!-- Generator: Adobe Illustrator 25.0.0, SVG Export Plug-In . SVG Version: 6.00 Build 0)  -->
<svg version="1.1" id="Calque_1" xmlns="http://www.w3.org/2000/svg" xmlns:xlink="http://www.w3.org/1999/xlink" x="0px" y="0px"
	 viewBox="0 0 2500 2500" style="enable-background:new 0 0 2500 2500;" xml:space="preserve">
<style type="text/css">
	.st0{fill:#7B89A8;}
</style>
<g>
	<path class="st0" d="M1867,1167.5c-27-29.6-68-44.4-123-44.4c-36,0-65.9,6.1-89.6,18.2c-23.8,12.2-42.8,27.2-57.1,45.2
		c-14.3,18-24.3,37-30.1,57.1c-5.8,20.1-9.3,38.1-10.3,53.9h366.5C1912.7,1240.5,1893.9,1197.1,1867,1167.5L1867,1167.5z"/>
	<path class="st0" d="M851.4,1142.1c44.4,0,80.9-10.6,109.5-31.7c28.6-21.2,42.9-55.5,42.8-103.1c0-26.4-4.8-48.1-14.3-65
		s-22.2-30.2-38.1-39.7c-15.9-9.5-34.1-16.1-54.7-19.8c-21.2-3.7-42.7-5.6-64.3-5.5H599.2v265L851.4,1142.1L851.4,1142.1z"/>
	<path class="st0" d="M1250,0C559.6,0,0,559.6,0,1250s559.6,1250,1250,1250s1250-559.6,1250-1250S1940.4,0,1250,0z M1518.3,741.1
		h457.9v127h-457.9V741.1z M1265.6,1636.5c-22.2,41.8-52.1,75.9-89.7,102.3c-37.6,26.5-80.4,46-128.5,58.7
		c-48.4,12.7-98.3,19.1-148.3,19H350V683.6h533.1c53.9,0,103.1,4.8,147.6,14.3s82.5,25.1,114.2,46.8s56.3,50.5,73.8,86.5
		s26.2,80.4,26.2,133.3c0,57.1-13,104.7-38.9,142.8s-64.3,69.3-115,93.6c69.8,20.1,121.9,55.3,156.3,105.5s51.6,110.8,51.6,181.7
		C1298.9,1545.2,1287.8,1594.7,1265.6,1636.5z M1612.3,1599L1612.3,1599c33.8,32.8,82.5,49.2,146,49.2c45.5,0,84.6-11.4,117.4-34.1
		s52.9-46.8,60.3-72.2h198.3c-31.7,98.4-80.4,168.7-146,211c-65.6,42.3-144.9,63.5-238,63.5c-64.5,0-122.7-10.3-174.5-30.9
		s-95.7-50-131.7-88.1s-63.8-83.5-83.3-136.4s-29.3-111.1-29.3-174.5c0-61.3,10-118.4,30.1-171.3s48.7-98.6,85.7-137.2
		s81.2-69,132.5-91.2s108.2-33.3,170.6-33.3c69.8,0,130.6,13.5,182.5,40.5c51.8,27,94.4,63.2,127.7,108.7
		c33.3,45.5,57.4,97.3,72.2,155.5s20.1,119,15.9,182.5h-591.8C1560,1513.4,1578.5,1566.3,1612.3,1599z"/>
	<path class="st0" d="M1000.6,1349.2c-32.8-24.9-76.2-37.3-130.1-37.3H599.2v311l266.5-0.1l0,0c23.5,0.1,46.9-2.3,69.8-7.1
		c22.2-4.8,41.8-12.7,58.7-23.8c16.9-11.1,30.4-26.2,40.5-45.2c10-19,15.1-43.4,15.1-73C1049.8,1415.6,1033.4,1374,1000.6,1349.2z"
		/>
</g>
</svg>
