<?xml version="1.0" encoding="utf-8"?>
<!-- Generator: Adobe Illustrator 25.0.0, SVG Export Plug-In . SVG Version: 6.00 Build 0)  -->
<svg version="1.1" id="Capa_1" xmlns="http://www.w3.org/2000/svg" xmlns:xlink="http://www.w3.org/1999/xlink" x="0px" y="0px"
	 viewBox="0 0 1080 1080" style="enable-background:new 0 0 1080 1080;" xml:space="preserve">
<style type="text/css">
	.st0{fill-rule:evenodd;clip-rule:evenodd;fill:#FFFFFF;}
</style>
<path class="st0" d="M925.85,259.51L533.96,61.36L154.14,259.51c-7.87,4.1-12.48,11.71-12.48,20.59v519.56
	c0,8.87,4.61,16.48,12.48,20.58l375.11,195.68c6.95,3.63,14.54,3.63,21.48,0l375.12-195.68c7.87-4.1,12.48-11.71,12.48-20.58V280.09
	C938.34,271.22,933.72,263.61,925.85,259.51z M880.28,778.54l-187.7,97.92L354.72,691.94l171.07-270.87l-62.02-33.99L297.16,652.92
	v86.94l321.1,175.36L540,956.04l-340.28-177.5V301.21l177.77-92.74l342.68,182.01l-183.1,271.7l60.97,33.24l184.81-273.37v-77.45
	L452.71,169.24L540,123.71l340.28,177.5V778.54z"/>
</svg>
