<?xml version="1.0" encoding="iso-8859-1"?>
<!-- Uploaded to: SVG Repo, www.svgrepo.com, Generator: SVG Repo Mixer Tools -->
<!DOCTYPE svg PUBLIC "-//W3C//DTD SVG 1.1//EN" "http://www.w3.org/Graphics/SVG/1.1/DTD/svg11.dtd">
<svg fill="#000000" height="800px" width="800px" version="1.1" id="Capa_1" xmlns="http://www.w3.org/2000/svg" xmlns:xlink="http://www.w3.org/1999/xlink" 
	 viewBox="0 0 206.124 206.124" xml:space="preserve">
<path d="M148.706,206.124H57.418c-1.104,0-2-0.896-2-2v-30.207c0-1.104,0.896-2,2-2h14.966l1.929-16.329
	c0.119-1.007,0.973-1.766,1.986-1.766H88.04l4.775-42.833l-18.695,9.83c-3.247,1.706-7.108,1.43-10.078-0.729
	c-2.969-2.156-4.428-5.743-3.808-9.359l5.033-29.341c0.311-1.807-0.289-3.65-1.603-4.931l-7.005-6.828
	c-0.023-0.021-0.046-0.043-0.067-0.065L42.348,55.681c-2.627-2.562-3.555-6.321-2.421-9.812c1.135-3.489,4.095-5.984,7.726-6.512
	l29.459-4.281c1.815-0.264,3.383-1.402,4.193-3.046L94.481,5.335C96.104,2.044,99.393,0,103.063,0c3.669,0,6.957,2.044,8.581,5.335
	l12.425,25.176c0.009,0.015,0.016,0.03,0.023,0.046l0.727,1.474c0.812,1.644,2.379,2.782,4.194,3.046l4.753,0.691
	c0.04,0.004,0.08,0.01,0.12,0.017l24.587,3.573c3.63,0.527,6.59,3.022,7.725,6.512c1.134,3.49,0.206,7.25-2.421,9.812L142.459,76.46
	c-1.313,1.279-1.913,3.123-1.603,4.93l5.033,29.341c0.62,3.616-0.839,7.203-3.808,9.359c-2.97,2.157-6.829,2.436-10.078,0.729
	l-18.695-9.83l4.775,42.833h11.741c1.014,0,1.867,0.759,1.986,1.766l1.929,16.329h14.966c1.104,0,2,0.896,2,2v30.207
	C150.706,205.229,149.811,206.124,148.706,206.124z M59.418,202.124h87.288v-26.207H59.418V202.124z M76.411,171.917h53.302
	l-1.665-14.095H78.076L76.411,171.917z M92.064,153.822h21.995l-5.026-45.08l-3.379-1.776c-0.353-0.186-0.72-0.33-1.096-0.436
	c-0.076-0.015-0.152-0.034-0.229-0.059c-1.291-0.3-2.662-0.136-3.86,0.494l-3.379,1.776L92.064,153.822z M107.586,103.462
	l26.279,13.816c1.92,1.011,4.113,0.85,5.865-0.424c1.754-1.274,2.583-3.312,2.216-5.448l-5.033-29.341
	c-0.532-3.104,0.497-6.271,2.753-8.47l21.317-20.78c1.553-1.513,2.08-3.647,1.409-5.71c-0.67-2.062-2.351-3.478-4.495-3.789
	l-23.125-3.36L107.586,103.462z M61.317,68.584l5.141,5.011c2.256,2.2,3.285,5.366,2.753,8.471l-5.033,29.341
	c-0.367,2.137,0.462,4.174,2.216,5.448c1.753,1.272,3.945,1.434,5.865,0.424l26.35-13.854c1.591-0.836,3.349-1.193,5.104-1.077
	l26.964-62.987l-2.239-0.325c-2.967-0.432-5.55-2.225-6.994-4.832L61.317,68.584z M103.063,4c-2.168,0-4.035,1.161-4.994,3.104
	L84.892,33.8c-1.394,2.825-4.087,4.782-7.204,5.235l-29.46,4.281c-2.146,0.312-3.826,1.728-4.496,3.789
	c-0.671,2.063-0.144,4.197,1.409,5.71l13.197,12.865l61.322-35.065L108.057,7.104c-0.001,0-0.001,0-0.001,0
	C107.097,5.161,105.229,4,103.063,4z M119.713,195.741H86.411c-1.104,0-2-0.896-2-2s0.896-2,2-2h33.302c1.104,0,2,0.896,2,2
	S120.817,195.741,119.713,195.741z M126.752,186.301h-47.38c-1.104,0-2-0.896-2-2s0.896-2,2-2h47.38c1.104,0,2,0.896,2,2
	S127.856,186.301,126.752,186.301z"/>
</svg>